<svg xmlns="http://www.w3.org/2000/svg" viewBox="0 0 699 240.62"><defs><style>.cls-1{fill:#fff;}</style></defs><title>Asset 1</title><g id="Layer_2" data-name="Layer 2"><g id="Layer_1-2" data-name="Layer 1"><path class="cls-1" d="M0,80.19v44.55a114.86,114.86,0,0,1,44.17,8.8,115.08,115.08,0,0,1,37.45,25.13,115.85,115.85,0,0,1,25,37.6,116.28,116.28,0,0,1,8.76,44.35h44.32a160.92,160.92,0,0,0-46.82-113.38A159.54,159.54,0,0,0,0,80.19Z"/><path class="cls-1" d="M221.67,0H151.43A285.78,285.78,0,0,1,239.6,88.54V18A18,18,0,0,0,221.67,0Z"/><path class="cls-1" d="M44.14,0H0V40.11A199.45,199.45,0,0,1,141.13,98.9a201.18,201.18,0,0,1,58.54,141.72H239.6V196.3A245.68,245.68,0,0,0,172.18,67.71,244,244,0,0,0,44.14,0Z"/><path class="cls-1" d="M348.25,26.49H320.12V168.9h28.13Z"/><path class="cls-1" d="M451.69,88.19a47.65,47.65,0,0,0-16.12-9.71,59.46,59.46,0,0,0-39.58,0,47.73,47.73,0,0,0-16.14,9.71,45.6,45.6,0,0,0-10.78,15.16,51.6,51.6,0,0,0,0,39.55,45.48,45.48,0,0,0,10.78,15.2A47.46,47.46,0,0,0,396,167.8a59.34,59.34,0,0,0,39.58,0,47.41,47.41,0,0,0,16.13-9.7,45.48,45.48,0,0,0,10.78-15.2,51.6,51.6,0,0,0,0-39.55A45.43,45.43,0,0,0,451.69,88.19Zm-19.31,51.7a24.71,24.71,0,0,1-33.21,0,26.74,26.74,0,0,1,0-33.56,24.74,24.74,0,0,1,33.21,0,26.78,26.78,0,0,1,0,33.56Z"/><path class="cls-1" d="M552.7,89.41h-.36a28.4,28.4,0,0,0-4.49-5,33.13,33.13,0,0,0-6.75-4.63,42.46,42.46,0,0,0-19.89-4.7,36.84,36.84,0,0,0-17.44,4,41.45,41.45,0,0,0-13,10.65A48.44,48.44,0,0,0,482.48,105a55.37,55.37,0,0,0-2.91,17.73,54.65,54.65,0,0,0,3.19,19,43.64,43.64,0,0,0,9.06,15A40.8,40.8,0,0,0,506,166.53,46.67,46.67,0,0,0,524.37,170a38.64,38.64,0,0,0,13.6-2.72,26.54,26.54,0,0,0,12.1-9.33h.38v8.86a22.27,22.27,0,0,1-1.43,8.67,22,22,0,0,1-4.67,7.44,25.46,25.46,0,0,1-19,6.33,38.5,38.5,0,0,1-15.84-3.21,58.57,58.57,0,0,1-13.8-8.66l-15.56,23.34a54.27,54.27,0,0,0,21.76,10.64,106.52,106.52,0,0,0,24,2.73q26.63,0,39.66-13.47t13-39.46V77.35H552.73ZM551,131.13a22.07,22.07,0,0,1-4.79,7.16,24.18,24.18,0,0,1-7.22,5,21.71,21.71,0,0,1-17.72,0,24.92,24.92,0,0,1-7.13-5,22.29,22.29,0,0,1,0-31.46,24.92,24.92,0,0,1,7.13-5,21.82,21.82,0,0,1,17.72,0,24.18,24.18,0,0,1,7.22,5,22.44,22.44,0,0,1,4.79,24.3Z"/><path class="cls-1" d="M684.28,88.19a47.79,47.79,0,0,0-16.13-9.71,59.46,59.46,0,0,0-39.58,0,47.73,47.73,0,0,0-16.14,9.71,45.6,45.6,0,0,0-10.78,15.16,51.6,51.6,0,0,0,0,39.55,45.48,45.48,0,0,0,10.78,15.2,47.55,47.55,0,0,0,16.14,9.7,59.34,59.34,0,0,0,39.58,0,47.41,47.41,0,0,0,16.13-9.7,45.48,45.48,0,0,0,10.78-15.2,51.6,51.6,0,0,0,0-39.55A45.6,45.6,0,0,0,684.28,88.19ZM665,139.89a24.7,24.7,0,0,1-33.2,0,26.71,26.71,0,0,1,0-33.56,24.73,24.73,0,0,1,33.2,0,26.74,26.74,0,0,1,0,33.56Z"/></g></g></svg>